<?xml version="1.0" standalone="no"?>
<!DOCTYPE svg PUBLIC "-//W3C//DTD SVG 20010904//EN"
 "http://www.w3.org/TR/2001/REC-SVG-20010904/DTD/svg10.dtd">
<svg version="1.0" xmlns="http://www.w3.org/2000/svg"
 width="47.340285pt" height="43.341699pt" viewBox="0 0 47.340285 43.341699"
 preserveAspectRatio="xMidYMid meet">
<metadata>
Created by potrace 1.12, written by Peter Selinger 2001-2015
</metadata>
<g transform="translate(-0.159715,45.841699) scale(0.100000,-0.100000)"
fill="#000000" stroke="none">
<path d="M5 447 c-3 -7 -4 -105 -3 -217 l3 -205 235 0 235 0 0 215 0 215 -233
3 c-183 2 -234 0 -237 -11z m465 -27 l0 -30 -230 0 -230 0 0 30 0 30 230 0
230 0 0 -30z m0 -215 l0 -175 -230 0 -230 0 0 175 0 175 230 0 230 0 0 -175z"/>
<path d="M37 433 c-12 -11 -8 -23 8 -23 8 0 15 7 15 15 0 16 -12 20 -23 8z"/>
<path d="M82 426 c1 -10 8 -17 13 -17 15 1 12 24 -3 29 -9 3 -13 -2 -10 -12z"/>
<path d="M125 430 c-3 -6 1 -13 10 -16 19 -8 30 0 20 15 -8 14 -22 14 -30 1z"/>
<path d="M205 430 c-14 -23 11 -30 113 -30 107 0 141 8 128 29 -9 14 -232 15
-241 1z"/>
<path d="M208 323 c-30 -34 -128 -197 -128 -213 0 -35 21 -40 161 -40 191 0
194 7 87 170 -66 99 -90 116 -120 83z m119 -98 c90 -141 91 -139 -85 -143
-187 -3 -186 -6 -78 161 74 115 80 114 163 -18z"/>
<path d="M204 258 c-15 -24 -42 -66 -60 -95 -18 -28 -30 -54 -27 -57 8 -8 238
-8 245 0 8 7 -105 187 -120 192 -6 2 -23 -16 -38 -40z m46 -48 c0 -27 -4 -50
-10 -50 -5 0 -10 23 -10 50 0 28 5 50 10 50 6 0 10 -22 10 -50z m5 -69 c7 -12
-12 -24 -25 -16 -11 7 -4 25 10 25 5 0 11 -4 15 -9z"/>
</g>
</svg>
