<?xml version="1.0" standalone="no"?>
<!DOCTYPE svg PUBLIC "-//W3C//DTD SVG 20010904//EN"
 "http://www.w3.org/TR/2001/REC-SVG-20010904/DTD/svg10.dtd">
<svg version="1.0" xmlns="http://www.w3.org/2000/svg"
 width="41.884091pt" height="45.213312pt" viewBox="0 0 41.884091 45.213312"
 preserveAspectRatio="xMidYMid meet">
<metadata>
Created by potrace 1.12, written by Peter Selinger 2001-2015
</metadata>
<g transform="translate(-3.000000,46.363051) scale(0.100000,-0.100000)"
fill="#000000" stroke="none">
<path d="M200 457 c-41 -14 -80 -68 -80 -111 0 -17 9 -45 19 -63 l20 -31 -29
-12 c-60 -25 -100 -89 -100 -160 0 -58 26 -72 126 -68 62 2 79 6 79 18 0 12
-17 15 -85 16 l-85 2 -3 32 c-4 42 14 85 48 114 21 17 45 24 98 29 84 7 106
17 132 60 59 97 -32 210 -140 174z m100 -47 c27 -27 35 -65 20 -101 -15 -35
-37 -49 -80 -49 -43 0 -65 14 -80 49 -25 62 14 121 80 121 26 0 47 -7 60 -20z"/>
<path d="M312 218 c-37 -10 -72 -58 -72 -98 0 -40 35 -88 72 -98 41 -11 88 1
111 29 68 83 -7 195 -111 167z m94 -56 c17 -22 17 -62 0 -84 -42 -56 -135 -28
-135 42 0 70 93 98 135 42z"/>
<path d="M332 150 c-4 -12 -12 -21 -17 -21 -6 1 -10 -5 -10 -11 0 -7 6 -12 13
-11 6 2 12 -3 12 -11 0 -24 20 -29 28 -7 4 11 12 20 17 20 6 1 10 7 10 14 0 6
-6 11 -12 10 -7 -2 -13 3 -13 11 0 25 -20 29 -28 6z"/>
</g>
</svg>
