<?xml version="1.0" standalone="no"?>
<!DOCTYPE svg PUBLIC "-//W3C//DTD SVG 20010904//EN"
 "http://www.w3.org/TR/2001/REC-SVG-20010904/DTD/svg10.dtd">
<svg version="1.0" xmlns="http://www.w3.org/2000/svg"
 width="48.114729pt" height="48.108413pt" viewBox="0 0 48.114729 48.108413"
 preserveAspectRatio="xMidYMid meet">
<metadata>
Created by potrace 1.12, written by Peter Selinger 2001-2015
</metadata>
<g transform="translate(-0.007181,47.986504) scale(0.100000,-0.100000)"
fill="#000000" stroke="none">
<path d="M160 467 c-49 -16 -133 -102 -148 -153 -28 -94 -8 -169 63 -239 101
-102 229 -102 330 0 102 101 102 229 0 330 -70 71 -152 91 -245 62z m144 -108
c37 -29 35 -69 -7 -116 -19 -21 -37 -46 -40 -56 -9 -25 -41 -18 -45 10 -2 14
10 36 33 62 42 46 43 74 2 79 -22 3 -31 -3 -45 -27 -26 -47 -61 -37 -48 14 13
51 102 71 150 34z m-41 -223 c7 -19 -18 -40 -38 -32 -15 6 -20 28 -8 39 12 12
41 7 46 -7z"/>
</g>
</svg>
