<?xml version="1.0" standalone="no"?>
<!DOCTYPE svg PUBLIC "-//W3C//DTD SVG 20010904//EN"
 "http://www.w3.org/TR/2001/REC-SVG-20010904/DTD/svg10.dtd">
<svg version="1.0" xmlns="http://www.w3.org/2000/svg"
 width="40.000000pt" height="48.000000pt" viewBox="0 0 40.000000 48.000000"
 preserveAspectRatio="xMidYMid meet">
<metadata>
Created by potrace 1.12, written by Peter Selinger 2001-2015
</metadata>
<g transform="translate(-4.000000,48.000000) scale(0.100000,-0.100000)"
fill="#000000" stroke="none">
<path d="M207 450 c-6 -16 -18 -30 -25 -30 -24 0 -79 -64 -91 -105 -6 -22 -11
-70 -11 -106 0 -53 -4 -69 -20 -84 -11 -10 -20 -26 -20 -37 0 -17 12 -18 200
-18 188 0 200 1 200 18 0 11 -9 27 -20 37 -16 15 -20 31 -20 84 0 36 -5 84
-11 106 -12 41 -67 105 -91 105 -7 0 -19 14 -25 30 -8 21 -18 30 -33 30 -15 0
-25 -9 -33 -30z"/>
<path d="M190 42 c0 -14 35 -42 52 -42 15 0 48 30 48 43 0 4 -22 7 -50 7 -27
0 -50 -4 -50 -8z"/>
</g>
</svg>
