<?xml version="1.0" standalone="no"?>
<!DOCTYPE svg PUBLIC "-//W3C//DTD SVG 20010904//EN"
 "http://www.w3.org/TR/2001/REC-SVG-20010904/DTD/svg10.dtd">
<svg version="1.0" xmlns="http://www.w3.org/2000/svg"
 width="34.508016pt" height="21.163480pt" viewBox="0 0 34.508016 21.163480"
 preserveAspectRatio="xMidYMid meet">
<metadata>
Created by potrace 1.12, written by Peter Selinger 2001-2015
</metadata>
<g transform="translate(0.008016,28.081740) scale(0.100000,-0.100000)"
fill="#000000" stroke="none">
<path d="M12 268 c-16 -16 -16 -170 0 -186 19 -19 193 -16 212 4 22 22 22 156
0 178 -19 20 -193 23 -212 4z"/>
<path d="M293 243 c-30 -15 -33 -20 -33 -65 0 -44 3 -50 33 -68 17 -11 37 -18
42 -17 6 2 10 39 10 82 0 44 -4 80 -10 81 -5 1 -25 -5 -42 -13z"/>
</g>
</svg>
