<?xml version="1.0" standalone="no"?>
<!DOCTYPE svg PUBLIC "-//W3C//DTD SVG 20010904//EN"
 "http://www.w3.org/TR/2001/REC-SVG-20010904/DTD/svg10.dtd">
<svg version="1.0" xmlns="http://www.w3.org/2000/svg"
 width="47.866966pt" height="47.867693pt" viewBox="0 0 47.866966 47.867693"
 preserveAspectRatio="xMidYMid meet">
<metadata>
Created by potrace 1.12, written by Peter Selinger 2001-2015
</metadata>
<g transform="translate(-0.133034,47.940168) scale(0.100000,-0.100000)"
fill="#000000" stroke="none">
<path d="M200 467 c0 -8 -17 -19 -39 -25 -21 -7 -51 -22 -66 -34 -47 -37 -86
-148 -51 -148 8 0 16 16 20 38 7 49 39 90 82 108 43 18 54 18 54 -1 0 -20 13
-19 33 3 22 24 21 35 -1 55 -22 21 -32 21 -32 4z"/>
<path d="M356 464 c-20 -20 -20 -53 0 -75 14 -16 14 -18 -5 -24 -24 -7 -51
-53 -51 -85 0 -19 6 -20 90 -20 82 0 90 2 90 19 0 35 -19 70 -45 84 -24 12
-25 15 -11 26 23 19 20 68 -3 81 -27 14 -47 13 -65 -6z"/>
<path d="M52 208 c-17 -17 -15 -67 3 -74 11 -5 6 -14 -21 -39 -27 -26 -35 -40
-32 -62 l3 -28 85 0 85 0 3 28 c3 22 -5 36 -31 60 -28 27 -32 35 -20 45 16 16
17 54 1 70 -7 7 -24 12 -38 12 -14 0 -31 -5 -38 -12z"/>
<path d="M416 182 c-7 -49 -39 -90 -82 -108 -43 -18 -54 -18 -54 1 0 20 -13
19 -33 -3 -22 -24 -21 -35 1 -55 22 -21 32 -21 32 -4 0 8 17 19 39 25 21 7 51
22 66 34 47 37 86 148 51 148 -8 0 -16 -16 -20 -38z"/>
</g>
</svg>
