<?xml version="1.0" standalone="no"?>
<!DOCTYPE svg PUBLIC "-//W3C//DTD SVG 20010904//EN"
 "http://www.w3.org/TR/2001/REC-SVG-20010904/DTD/svg10.dtd">
<svg version="1.0" xmlns="http://www.w3.org/2000/svg"
 width="244.244339pt" height="244.078027pt" viewBox="0 0 244.244339 244.078027"
 preserveAspectRatio="xMidYMid meet">
<metadata>
Created by potrace 1.12, written by Peter Selinger 2001-2015
</metadata>
<g transform="translate(-0.863724,244.879729) scale(0.100000,-0.100000)"
fill="#000000" stroke="none">
<path d="M985 2430 c-49 -11 -124 -31 -165 -46 -85 -30 -215 -93 -207 -100 3
-3 38 11 78 31 95 49 255 101 349 114 41 6 86 13 100 15 14 2 5 4 -20 4 -25 0
-85 -8 -135 -18z"/>
<path d="M1365 2439 c139 -18 282 -62 409 -125 38 -19 71 -33 73 -30 7 7 -122
70 -205 100 -87 31 -255 66 -309 65 -26 -1 -16 -4 32 -10z"/>
<path d="M536 2240 l-51 -35 373 -3 c204 -1 540 -1 745 0 l372 3 -47 33 -47
32 -647 3 -647 2 -51 -35z m1364 0 c10 -6 -224 -10 -670 -10 -446 0 -680 4
-670 10 9 6 264 10 670 10 406 0 661 -4 670 -10z m-312 -27 c-197 -2 -519 -2
-715 0 -197 1 -36 2 357 2 393 0 554 -1 358 -2z"/>
<path d="M370 2100 c-187 -185 -309 -423 -351 -679 -16 -101 -13 -323 6 -416
53 -254 162 -461 335 -635 238 -240 531 -362 870 -362 206 0 375 39 550 127
349 176 598 517 661 904 14 85 14 297 0 382 -42 257 -166 496 -351 677 l-95
94 -765 1 -765 2 -95 -95z m1250 -425 c211 -179 388 -334 392 -346 16 -43 -40
-97 -83 -80 -13 5 -166 129 -339 276 -173 146 -325 268 -337 271 -13 4 -33 4
-46 0 -12 -3 -164 -125 -337 -271 -173 -147 -325 -271 -338 -276 -43 -17 -100
37 -85 79 7 19 769 672 783 672 3 0 178 -146 390 -325z m-106 -183 l276 -233
0 -400 0 -399 -145 0 -145 0 0 303 c0 222 -3 306 -12 315 -17 17 -499 17 -516
0 -9 -9 -12 -93 -12 -315 l0 -303 -145 0 -145 0 0 399 0 400 278 235 c152 129
280 234 284 233 3 -1 130 -107 282 -235z m-90 -552 c0 -41 -1 -166 -2 -277
l-2 -203 -189 0 -190 0 -3 273 c-2 149 -2 275 0 280 2 4 90 6 195 5 l192 -3
-1 -75z"/>
</g>
</svg>
