<?xml version="1.0" standalone="no"?>
<!DOCTYPE svg PUBLIC "-//W3C//DTD SVG 20010904//EN"
 "http://www.w3.org/TR/2001/REC-SVG-20010904/DTD/svg10.dtd">
<svg version="1.0" xmlns="http://www.w3.org/2000/svg"
 width="48.000000pt" height="48.000000pt" viewBox="0 0 48.000000 48.000000"
 preserveAspectRatio="xMidYMid meet">
<metadata>
Created by potrace 1.12, written by Peter Selinger 2001-2015
</metadata>
<g transform="translate(0.000000,48.000000) scale(0.100000,-0.100000)"
fill="#000000" stroke="none">
<path d="M194 453 c-10 -44 -32 -56 -66 -35 -28 16 -29 16 -56 -11 -26 -27
-26 -28 -11 -56 20 -35 10 -57 -31 -66 -27 -6 -30 -10 -30 -46 0 -34 3 -39 28
-45 43 -10 53 -30 34 -64 -17 -29 -16 -30 11 -57 27 -27 28 -28 57 -11 34 19
54 9 64 -35 6 -24 11 -27 45 -27 36 0 40 3 46 30 9 41 31 51 66 31 28 -15 29
-15 56 11 27 27 27 28 11 56 -21 34 -9 56 35 66 24 6 27 11 27 46 0 37 -2 39
-34 46 -43 7 -51 27 -29 65 17 29 17 30 -10 56 -26 27 -27 27 -56 10 -38 -22
-58 -14 -65 29 -7 32 -9 34 -46 34 -35 0 -40 -3 -46 -27z m91 -168 c31 -30 32
-62 3 -92 -42 -45 -118 -17 -118 44 0 34 36 73 67 73 13 0 35 -11 48 -25z"/>
</g>
</svg>
