<?xml version="1.0" standalone="no"?>
<!DOCTYPE svg PUBLIC "-//W3C//DTD SVG 20010904//EN"
 "http://www.w3.org/TR/2001/REC-SVG-20010904/DTD/svg10.dtd">
<svg version="1.0" xmlns="http://www.w3.org/2000/svg"
 width="46.048119pt" height="46.000000pt" viewBox="0 0 46.048119 46.000000"
 preserveAspectRatio="xMidYMid meet">
<metadata>
Created by potrace 1.12, written by Peter Selinger 2001-2015
</metadata>
<g transform="translate(-0.951881,47.000000) scale(0.100000,-0.100000)"
fill="#000000" stroke="none">
<path d="M17 463 c-13 -12 -8 -238 5 -251 7 -7 40 -12 80 -12 l68 0 0 -71 0
-70 -42 3 c-42 3 -43 4 -46 40 -3 33 -1 37 15 31 17 -6 17 -5 3 16 -20 30 -30
30 -49 1 -15 -22 -15 -24 1 -17 15 5 18 0 18 -33 0 -45 24 -65 71 -58 23 4 29
1 29 -14 0 -17 11 -18 150 -18 l150 0 0 120 0 120 -110 0 -110 0 0 71 0 70 43
-3 c41 -3 42 -4 45 -40 3 -33 1 -37 -15 -31 -17 7 -17 6 -2 -17 21 -31 27 -31
48 0 15 22 15 24 -1 17 -15 -5 -18 0 -18 33 0 45 -24 65 -71 58 -24 -4 -29 -1
-29 17 0 38 -19 45 -125 45 -56 0 -105 -3 -108 -7z m209 -113 l0 -105 -3 98
-4 97 -89 0 -90 0 0 -111 c0 -71 -4 -108 -10 -104 -11 7 -14 218 -3 229 4 4
50 5 103 4 l95 -3 1 -105z m-26 50 l0 -30 -75 0 -75 0 0 30 0 30 75 0 75 0 0
-30z m0 -80 l0 -30 -75 0 -75 0 0 30 0 30 75 0 75 0 0 -30z m0 -55 c0 -8 -7
-15 -15 -15 -8 0 -15 -7 -15 -15 0 -12 -13 -15 -60 -15 l-60 0 0 30 0 30 75 0
c60 0 75 -3 75 -15z m260 -55 c0 -19 -7 -20 -135 -20 -128 0 -135 1 -135 20 0
19 7 20 135 20 128 0 135 -1 135 -20z m0 -115 l0 -75 -135 0 -135 0 0 75 0 75
135 0 135 0 0 -75z"/>
<path d="M140 325 c0 -8 5 -15 10 -15 6 0 10 7 10 15 0 8 -4 15 -10 15 -5 0
-10 -7 -10 -15z"/>
<path d="M170 325 c0 -8 5 -15 10 -15 6 0 10 7 10 15 0 8 -4 15 -10 15 -5 0
-10 -7 -10 -15z"/>
<path d="M303 153 c-7 -2 -13 -17 -13 -31 0 -15 -7 -36 -15 -46 -24 -32 -18
-36 45 -36 62 0 77 13 46 39 -8 7 -12 21 -9 31 9 34 -20 57 -54 43z m37 -33
c0 -21 -24 -28 -35 -10 -8 14 3 30 21 30 8 0 14 -9 14 -20z m20 -55 c11 -13 6
-15 -34 -15 -43 0 -55 7 -39 23 12 13 60 7 73 -8z"/>
</g>
</svg>
