<?xml version="1.0" standalone="no"?>
<!DOCTYPE svg PUBLIC "-//W3C//DTD SVG 20010904//EN"
 "http://www.w3.org/TR/2001/REC-SVG-20010904/DTD/svg10.dtd">
<svg version="1.0" xmlns="http://www.w3.org/2000/svg"
 width="38.325023pt" height="42.405896pt" viewBox="0 0 38.325023 42.405896"
 preserveAspectRatio="xMidYMid meet">
<metadata>
Created by potrace 1.12, written by Peter Selinger 2001-2015
</metadata>
<g transform="translate(-4.885478,45.405896) scale(0.100000,-0.100000)"
fill="#000000" stroke="none">
<path d="M55 440 c-4 -7 -8 -264 -5 -397 0 -10 33 -13 133 -13 l132 0 -3 44
c-3 38 -6 43 -24 38 -26 -7 -38 13 -38 66 0 59 15 86 40 72 10 -5 30 -10 44
-10 25 0 26 3 26 55 l0 55 -33 0 c-42 0 -67 26 -67 68 l0 32 -99 0 c-55 0
-103 -4 -106 -10z m125 -80 c0 -5 -20 -10 -45 -10 -25 0 -45 5 -45 10 0 6 20
10 45 10 25 0 45 -4 45 -10z m90 -60 c0 -6 -37 -10 -90 -10 -53 0 -90 4 -90
10 0 6 37 10 90 10 53 0 90 -4 90 -10z m-40 -60 c0 -6 -30 -10 -70 -10 -40 0
-70 4 -70 10 0 6 30 10 70 10 40 0 70 -4 70 -10z m-10 -60 c0 -6 -28 -10 -65
-10 -37 0 -65 4 -65 10 0 6 28 10 65 10 37 0 65 -4 65 -10z"/>
<path d="M280 417 c0 -41 12 -51 55 -45 l26 3 -40 40 -41 39 0 -37z"/>
<path d="M270 180 c0 -49 3 -58 15 -54 10 4 15 21 15 54 0 33 -5 50 -15 54
-12 4 -15 -5 -15 -54z"/>
<path d="M415 226 c-14 -16 -12 -81 3 -95 14 -14 13 -16 14 49 1 56 -2 64 -17
46z"/>
<path d="M319 225 c0 -3 -1 -24 -1 -47 -1 -42 -1 -43 35 -46 l37 -3 0 50 0 51
-35 0 c-19 0 -35 -2 -36 -5z"/>
<path d="M327 88 c-6 -37 13 -64 37 -55 11 4 16 19 16 47 0 36 -3 40 -24 40
-19 0 -25 -6 -29 -32z"/>
</g>
</svg>
