<?xml version="1.0" standalone="no"?>
<!DOCTYPE svg PUBLIC "-//W3C//DTD SVG 20010904//EN"
 "http://www.w3.org/TR/2001/REC-SVG-20010904/DTD/svg10.dtd">
<svg version="1.0" xmlns="http://www.w3.org/2000/svg"
 width="382.675090pt" height="438.161049pt" viewBox="0 0 382.675090 438.161049"
 preserveAspectRatio="xMidYMid meet">
<metadata>
Created by potrace 1.12, written by Peter Selinger 2001-2015
</metadata>
<g transform="translate(-64.217142,475.000000) scale(0.100000,-0.100000)"
fill="#000000" stroke="none">
<path d="M1240 3810 l0 -940 880 0 880 0 0 940 0 940 -295 0 -295 0 0 -288 c0
-267 -1 -290 -18 -305 -10 -10 -23 -17 -28 -17 -6 0 -61 36 -124 80 -63 44
-117 80 -120 80 -3 0 -57 -36 -120 -80 -63 -44 -119 -80 -125 -80 -7 0 -19 8
-28 18 -15 16 -17 53 -17 305 l0 287 -295 0 -295 0 0 -940z m718 -372 c15 -15
15 -51 0 -66 -9 -9 -73 -12 -228 -12 -227 0 -240 2 -240 45 0 43 13 45 240 45
155 0 219 -3 228 -12z m260 0 c16 -16 15 -53 -2 -67 -23 -19 -96 -9 -112 14
-12 18 -11 24 2 43 11 17 25 22 58 22 23 0 47 -5 54 -12z m-427 -258 c12 -7
19 -21 19 -40 0 -19 -7 -33 -19 -40 -11 -5 -76 -10 -145 -10 -113 0 -128 2
-146 20 -11 11 -20 25 -20 30 0 6 9 19 20 30 18 18 33 20 146 20 69 0 134 -5
145 -10z"/>
<path d="M1924 4737 c-2 -7 -3 -112 -2 -235 l3 -222 94 65 c52 36 98 65 102
65 4 0 51 -29 103 -65 l96 -66 0 236 0 235 -195 0 c-149 0 -197 -3 -201 -13z"/>
<path d="M3100 3810 l0 -940 295 0 295 0 0 940 0 940 -295 0 -295 0 0 -940z"/>
<path d="M4223 2890 c-51 -12 -77 -32 -337 -269 l-246 -223 26 -21 c40 -31 74
-112 74 -178 0 -69 -36 -146 -87 -184 -67 -52 -94 -55 -504 -55 l-379 0 -15
24 c-13 19 -14 29 -6 45 11 19 22 20 405 23 380 3 396 4 422 24 100 74 95 203
-10 253 -44 22 -46 22 -688 18 -626 -3 -645 -4 -728 -25 -105 -28 -266 -105
-343 -165 -76 -59 -489 -457 -485 -468 2 -4 93 -92 203 -195 110 -103 261
-245 336 -315 l136 -128 72 64 c59 52 82 66 124 74 29 6 135 27 237 46 701
136 712 139 843 225 107 69 1159 1094 1181 1150 61 153 -74 318 -231 280z"/>
<path d="M1019 1683 c-93 -87 -364 -385 -372 -409 -5 -14 -6 -36 -3 -49 5 -19
644 -631 854 -817 70 -62 89 -57 202 60 196 202 319 341 326 367 4 16 1 38 -7
55 -12 25 -770 743 -857 813 -51 40 -83 36 -143 -20z"/>
</g>
</svg>
