<?xml version="1.0" encoding="UTF-8"?>
<!DOCTYPE svg PUBLIC "-//W3C//DTD SVG 1.1//EN" "http://www.w3.org/Graphics/SVG/1.1/DTD/svg11.dtd">
<svg xmlns="http://www.w3.org/2000/svg" version="1.1" width="48px" height="48px" style="shape-rendering:geometricPrecision; text-rendering:geometricPrecision; image-rendering:optimizeQuality; fill-rule:evenodd; clip-rule:evenodd" xmlns:xlink="http://www.w3.org/1999/xlink">
<g><path style="opacity:1" fill="#ecf3fb" d="M -0.5,-0.5 C 0.833333,-0.5 2.16667,-0.5 3.5,-0.5C 1.83333,0.5 0.5,1.83333 -0.5,3.5C -0.5,2.16667 -0.5,0.833333 -0.5,-0.5 Z"/></g>
<g><path style="opacity:1" fill="#1975d1" d="M 3.5,-0.5 C 16.8333,-0.5 30.1667,-0.5 43.5,-0.5C 45.1667,0.5 46.5,1.83333 47.5,3.5C 47.5,16.8333 47.5,30.1667 47.5,43.5C 46.5,45.1667 45.1667,46.5 43.5,47.5C 39.8333,47.5 36.1667,47.5 32.5,47.5C 32.5,41.8333 32.5,36.1667 32.5,30.5C 37.2473,30.716 39.5806,28.3827 39.5,23.5C 37.1667,23.5 34.8333,23.5 32.5,23.5C 32.5,21.1667 32.5,18.8333 32.5,16.5C 34.5,16.5 36.5,16.5 38.5,16.5C 38.5,13.8333 38.5,11.1667 38.5,8.5C 27.1667,7.16667 22.1667,12.1667 23.5,23.5C 21.5,23.5 19.5,23.5 17.5,23.5C 17.5,26.1667 17.5,28.8333 17.5,31.5C 19.5,31.5 21.5,31.5 23.5,31.5C 23.5,36.8333 23.5,42.1667 23.5,47.5C 16.8333,47.5 10.1667,47.5 3.5,47.5C 1.83333,46.5 0.5,45.1667 -0.5,43.5C -0.5,30.1667 -0.5,16.8333 -0.5,3.5C 0.5,1.83333 1.83333,0.5 3.5,-0.5 Z"/></g>
<g><path style="opacity:1" fill="#ecf3fb" d="M 43.5,-0.5 C 44.8333,-0.5 46.1667,-0.5 47.5,-0.5C 47.5,0.833333 47.5,2.16667 47.5,3.5C 46.5,1.83333 45.1667,0.5 43.5,-0.5 Z"/></g>
<g><path style="opacity:1" fill="#f8f9fa" d="M 32.5,47.5 C 29.5,47.5 26.5,47.5 23.5,47.5C 23.5,42.1667 23.5,36.8333 23.5,31.5C 21.5,31.5 19.5,31.5 17.5,31.5C 17.5,28.8333 17.5,26.1667 17.5,23.5C 19.5,23.5 21.5,23.5 23.5,23.5C 22.1667,12.1667 27.1667,7.16667 38.5,8.5C 38.5,11.1667 38.5,13.8333 38.5,16.5C 36.5,16.5 34.5,16.5 32.5,16.5C 32.5,18.8333 32.5,21.1667 32.5,23.5C 34.8333,23.5 37.1667,23.5 39.5,23.5C 39.5806,28.3827 37.2473,30.716 32.5,30.5C 32.5,36.1667 32.5,41.8333 32.5,47.5 Z"/></g>
<g><path style="opacity:1" fill="#ecf3fb" d="M -0.5,43.5 C 0.5,45.1667 1.83333,46.5 3.5,47.5C 2.16667,47.5 0.833333,47.5 -0.5,47.5C -0.5,46.1667 -0.5,44.8333 -0.5,43.5 Z"/></g>
<g><path style="opacity:1" fill="#ecf3fb" d="M 47.5,43.5 C 47.5,44.8333 47.5,46.1667 47.5,47.5C 46.1667,47.5 44.8333,47.5 43.5,47.5C 45.1667,46.5 46.5,45.1667 47.5,43.5 Z"/></g>
</svg>
