<?xml version="1.0" standalone="no"?>
<!DOCTYPE svg PUBLIC "-//W3C//DTD SVG 20010904//EN"
 "http://www.w3.org/TR/2001/REC-SVG-20010904/DTD/svg10.dtd">
<svg version="1.0" xmlns="http://www.w3.org/2000/svg"
 width="34.884551pt" height="32.703843pt" viewBox="0 0 34.884551 32.703843"
 preserveAspectRatio="xMidYMid meet">
<metadata>
Created by potrace 1.12, written by Peter Selinger 2001-2015
</metadata>
<g transform="translate(0.000000,33.904980) scale(0.100000,-0.100000)"
fill="#000000" stroke="none">
<path d="M112 323 c-18 -9 -42 -27 -53 -41 -19 -24 -20 -24 -39 -7 -20 18 -20
17 -20 -38 l0 -57 57 0 56 0 -21 23 c-28 29 -27 38 1 65 55 52 128 50 182 -3
53 -53 53 -127 0 -179 -60 -60 -146 -54 -196 13 -12 17 -31 31 -41 31 -17 0
-17 -2 -3 -29 61 -118 233 -119 293 -1 28 55 28 92 1 147 -39 80 -139 115
-217 76z"/>
<path d="M160 206 c0 -40 3 -46 36 -65 19 -12 39 -21 45 -21 20 0 7 22 -26 41
-29 17 -35 27 -35 55 0 19 -4 34 -10 34 -5 0 -10 -20 -10 -44z"/>
</g>
</svg>
