<?xml version="1.0" standalone="no"?>
<!DOCTYPE svg PUBLIC "-//W3C//DTD SVG 20010904//EN"
 "http://www.w3.org/TR/2001/REC-SVG-20010904/DTD/svg10.dtd">
<svg version="1.0" xmlns="http://www.w3.org/2000/svg"
 width="48.052474pt" height="48.075001pt" viewBox="0 0 48.052474 48.075001"
 preserveAspectRatio="xMidYMid meet">
<metadata>
Created by potrace 1.12, written by Peter Selinger 2001-2015
</metadata>
<g transform="translate(0.026237,48.075001) scale(0.100000,-0.100000)"
fill="#000000" stroke="none">
<path d="M12 468 c-14 -14 -17 -334 -4 -355 5 -8 43 -13 107 -15 81 -2 100 -6
100 -18 0 -10 -13 -16 -40 -18 -46 -4 -65 -17 -65 -43 0 -18 9 -19 130 -19
121 0 130 1 130 19 0 26 -19 39 -65 43 -27 2 -40 8 -40 18 0 12 19 16 100 18
64 2 102 7 107 15 13 21 10 341 -4 355 -17 17 -439 17 -456 0z m448 -158 l0
-150 -220 0 -220 0 0 150 0 150 220 0 220 0 0 -150z m-2 -182 c-4 -10 -56 -13
-218 -13 -162 0 -214 3 -217 13 -4 9 44 12 217 12 173 0 221 -3 218 -12z
m-208 -48 c0 -11 -4 -20 -10 -20 -5 0 -10 9 -10 20 0 11 5 20 10 20 6 0 10 -9
10 -20z m98 -47 c3 -10 -23 -13 -107 -13 -102 0 -123 5 -104 24 13 12 206 2
211 -11z"/>
<path d="M155 430 c-17 -19 -17 -21 0 -40 10 -11 22 -17 27 -14 5 3 1 12 -9
19 -17 13 -17 14 1 34 11 12 15 21 9 21 -5 0 -18 -9 -28 -20z"/>
<path d="M210 445 c0 -11 48 -74 53 -69 7 7 -35 74 -45 74 -5 0 -8 -2 -8 -5z"/>
<path d="M306 429 c18 -20 18 -21 1 -34 -10 -7 -14 -16 -9 -19 5 -3 17 3 27
14 17 19 17 21 0 40 -10 11 -23 20 -28 20 -6 0 -2 -9 9 -21z"/>
<path d="M420 332 c-7 -26 -15 -49 -17 -51 -2 -3 -14 6 -28 19 -14 13 -26 22
-28 19 -2 -2 -18 -23 -36 -46 l-32 -42 -34 16 c-33 16 -34 16 -75 -17 -22 -18
-38 -35 -35 -38 3 -3 22 8 43 25 l37 30 30 -19 c17 -10 33 -18 36 -18 3 0 20
21 38 46 l33 46 29 -28 c16 -15 30 -26 32 -23 10 13 33 120 27 124 -4 3 -13
-17 -20 -43z"/>
<path d="M92 308 c-1 -34 -6 -48 -16 -48 -8 0 -17 10 -19 23 l-4 22 -2 -22 c0
-13 -5 -23 -11 -23 -5 0 -10 -4 -10 -10 0 -6 28 -10 65 -10 37 0 65 4 65 10 0
6 -4 10 -9 10 -6 0 -12 19 -14 43 l-4 42 -1 -42 c-1 -30 -6 -43 -16 -43 -11 0
-16 14 -19 48 l-3 47 -2 -47z"/>
</g>
</svg>
