<?xml version="1.0" encoding="UTF-8"?>
<!DOCTYPE svg PUBLIC "-//W3C//DTD SVG 1.1//EN" "http://www.w3.org/Graphics/SVG/1.1/DTD/svg11.dtd">
<svg xmlns="http://www.w3.org/2000/svg" version="1.1" width="48px" height="48px" style="shape-rendering:geometricPrecision; text-rendering:geometricPrecision; image-rendering:optimizeQuality; fill-rule:evenodd; clip-rule:evenodd" xmlns:xlink="http://www.w3.org/1999/xlink">
<g><path style="opacity:1" fill="#fffdfc" d="M -0.5,-0.5 C 1.83333,-0.5 4.16667,-0.5 6.5,-0.5C 6.5,-0.166667 6.5,0.166667 6.5,0.5C 3.5,1.5 1.5,3.5 0.5,6.5C 0.166667,6.5 -0.166667,6.5 -0.5,6.5C -0.5,4.16667 -0.5,1.83333 -0.5,-0.5 Z"/></g>
<g><path style="opacity:1" fill="#ea4966" d="M 6.5,0.5 C 6.5,0.166667 6.5,-0.166667 6.5,-0.5C 12.1667,-0.5 17.8333,-0.5 23.5,-0.5C 25.0699,1.9474 27.0699,3.9474 29.5,5.5C 25.1667,5.5 20.8333,5.5 16.5,5.5C 14.7645,0.978173 11.4311,-0.688494 6.5,0.5 Z"/></g>
<g><path style="opacity:1" fill="#fdf9fc" d="M 39.5,-0.5 C 42.1667,-0.5 44.8333,-0.5 47.5,-0.5C 47.5,1.83333 47.5,4.16667 47.5,6.5C 45.4274,3.42355 42.7608,1.09021 39.5,-0.5 Z"/></g>
<g><path style="opacity:1" fill="#fd5e41" d="M 6.5,0.5 C 11.4311,-0.688494 14.7645,0.978173 16.5,5.5C 9.3647,6.30255 5.69803,10.3025 5.5,17.5C 4.66301,15.1413 3.16301,13.1413 1,11.5C 0.506489,9.86586 0.339822,8.19919 0.5,6.5C 1.5,3.5 3.5,1.5 6.5,0.5 Z"/></g>
<g><path style="opacity:1" fill="#d83f87" d="M 23.5,-0.5 C 26.5,-0.5 29.5,-0.5 32.5,-0.5C 36.8728,5.53572 41.8728,10.8691 47.5,15.5C 47.5,17.8333 47.5,20.1667 47.5,22.5C 45.5,20.1667 43.5,17.8333 41.5,15.5C 40.2397,8.90818 36.2397,5.57485 29.5,5.5C 27.0699,3.9474 25.0699,1.9474 23.5,-0.5 Z"/></g>
<g><path style="opacity:1" fill="#d13d98" d="M 32.5,-0.5 C 34.8333,-0.5 37.1667,-0.5 39.5,-0.5C 42.7608,1.09021 45.4274,3.42355 47.5,6.5C 47.5,9.5 47.5,12.5 47.5,15.5C 41.8728,10.8691 36.8728,5.53572 32.5,-0.5 Z"/></g>
<g><path style="opacity:1" fill="#ffece9" d="M 16.5,5.5 C 20.8333,5.5 25.1667,5.5 29.5,5.5C 36.2397,5.57485 40.2397,8.90818 41.5,15.5C 41.5,19.8333 41.5,24.1667 41.5,28.5C 41.7036,33.0882 40.037,36.7549 36.5,39.5C 32.7424,41.2541 28.7424,41.9208 24.5,41.5C 21.5,41.5 18.5,41.5 15.5,41.5C 9.3767,40.3764 6.04337,36.7098 5.5,30.5C 5.5,26.1667 5.5,21.8333 5.5,17.5C 5.69803,10.3025 9.3647,6.30255 16.5,5.5 Z"/></g>
<g><path style="opacity:1" fill="#fc5744" d="M 23.5,9.5 C 23.0825,10.2216 22.4158,10.7216 21.5,11C 23.2331,12.1889 24.8998,13.3556 26.5,14.5C 21.6601,13.7555 17.9934,15.4222 15.5,19.5C 13.8606,17.1939 11.8606,15.1939 9.5,13.5C 9.94425,11.8868 10.9443,10.7202 12.5,10C 16.1516,9.50137 19.8183,9.3347 23.5,9.5 Z"/></g>
<g><path style="opacity:1" fill="#fff9f8" d="M 26.5,14.5 C 28.8333,16.1667 30.8333,18.1667 32.5,20.5C 33.2445,25.3399 31.5778,29.0066 27.5,31.5C 21.7109,33.9323 17.5443,32.2657 15,26.5C 14.2967,24.0709 14.4634,21.7375 15.5,19.5C 17.9934,15.4222 21.6601,13.7555 26.5,14.5 Z"/></g>
<g><path style="opacity:1" fill="#eb536e" d="M 23.5,9.5 C 35.1678,7.33348 40.1678,12.1668 38.5,24C 38.4978,27.0208 38.1644,29.8541 37.5,32.5C 37.6633,30.1432 37.4966,27.8098 37,25.5C 35.264,23.9368 33.764,22.2701 32.5,20.5C 30.8333,18.1667 28.8333,16.1667 26.5,14.5C 24.8998,13.3556 23.2331,12.1889 21.5,11C 22.4158,10.7216 23.0825,10.2216 23.5,9.5 Z"/></g>
<g><path style="opacity:1" fill="#fce5ea" d="M 32.5,11.5 C 36.1379,12.9375 36.3046,14.6042 33,16.5C 31.8315,15.9915 30.9981,15.1581 30.5,14C 31.3805,13.2917 32.0472,12.4584 32.5,11.5 Z"/></g>
<g><path style="opacity:1" fill="#ff9847" d="M -0.5,6.5 C -0.166667,6.5 0.166667,6.5 0.5,6.5C 0.339822,8.19919 0.506489,9.86586 1,11.5C 3.16301,13.1413 4.66301,15.1413 5.5,17.5C 5.5,21.8333 5.5,26.1667 5.5,30.5C 3.86058,28.1939 1.86058,26.1939 -0.5,24.5C -0.5,18.5 -0.5,12.5 -0.5,6.5 Z"/></g>
<g><path style="opacity:1" fill="#fc5742" d="M 21.5,17.5 C 27.3296,17.1605 29.8296,19.8272 29,25.5C 25.3333,30.8333 21.6667,30.8333 18,25.5C 17.2793,21.9463 18.4459,19.2796 21.5,17.5 Z"/></g>
<g><path style="opacity:1" fill="#ff8143" d="M 9.5,13.5 C 11.8606,15.1939 13.8606,17.1939 15.5,19.5C 14.4634,21.7375 14.2967,24.0709 15,26.5C 17.5443,32.2657 21.7109,33.9323 27.5,31.5C 27.7512,33.1703 28.4178,34.6703 29.5,36C 28.2625,36.2321 27.2625,36.7321 26.5,37.5C 21.8215,37.6658 17.1548,37.4992 12.5,37C 11.6919,36.6924 11.0253,36.1924 10.5,35.5C 9.53454,28.224 9.2012,20.8907 9.5,13.5 Z"/></g>
<g><path style="opacity:1" fill="#e6466c" d="M 41.5,15.5 C 43.5,17.8333 45.5,20.1667 47.5,22.5C 47.5,28.1667 47.5,33.8333 47.5,39.5C 47.1667,39.5 46.8333,39.5 46.5,39.5C 46.6567,38.1266 46.49,36.7932 46,35.5C 43.4953,33.6765 41.9953,31.3431 41.5,28.5C 41.5,24.1667 41.5,19.8333 41.5,15.5 Z"/></g>
<g><path style="opacity:1" fill="#fb5442" d="M 32.5,20.5 C 33.764,22.2701 35.264,23.9368 37,25.5C 37.4966,27.8098 37.6633,30.1432 37.5,32.5C 37.1412,34.371 36.1412,35.871 34.5,37C 31.854,37.4974 29.1873,37.6641 26.5,37.5C 27.2625,36.7321 28.2625,36.2321 29.5,36C 28.4178,34.6703 27.7512,33.1703 27.5,31.5C 31.5778,29.0066 33.2445,25.3399 32.5,20.5 Z"/></g>
<g><path style="opacity:1" fill="#ffca54" d="M -0.5,28.5 C 4.21368,34.8543 9.21368,41.1876 14.5,47.5C 11.8333,47.5 9.16667,47.5 6.5,47.5C 3.42355,45.4274 1.09021,42.7608 -0.5,39.5C -0.5,35.8333 -0.5,32.1667 -0.5,28.5 Z"/></g>
<g><path style="opacity:1" fill="#fffdfa" d="M -0.5,39.5 C 1.09021,42.7608 3.42355,45.4274 6.5,47.5C 4.16667,47.5 1.83333,47.5 -0.5,47.5C -0.5,44.8333 -0.5,42.1667 -0.5,39.5 Z"/></g>
<g><path style="opacity:1" fill="#f84e48" d="M 41.5,28.5 C 41.9953,31.3431 43.4953,33.6765 46,35.5C 46.49,36.7932 46.6567,38.1266 46.5,39.5C 46.3775,42.2921 45.0442,44.2921 42.5,45.5C 40.9362,43.0156 38.9362,41.0156 36.5,39.5C 40.037,36.7549 41.7036,33.0882 41.5,28.5 Z"/></g>
<g><path style="opacity:1" fill="#fff8f7" d="M 46.5,39.5 C 46.8333,39.5 47.1667,39.5 47.5,39.5C 47.5,42.1667 47.5,44.8333 47.5,47.5C 44.8333,47.5 42.1667,47.5 39.5,47.5C 40.5,46.8333 41.5,46.1667 42.5,45.5C 45.0442,44.2921 46.3775,42.2921 46.5,39.5 Z"/></g>
<g><path style="opacity:1" fill="#ffb14c" d="M -0.5,24.5 C 1.86058,26.1939 3.86058,28.1939 5.5,30.5C 6.04337,36.7098 9.3767,40.3764 15.5,41.5C 17.8061,43.1394 19.8061,45.1394 21.5,47.5C 19.1667,47.5 16.8333,47.5 14.5,47.5C 9.21368,41.1876 4.21368,34.8543 -0.5,28.5C -0.5,27.1667 -0.5,25.8333 -0.5,24.5 Z"/></g>
<g><path style="opacity:1" fill="#ff8e45" d="M 15.5,41.5 C 18.5,41.5 21.5,41.5 24.5,41.5C 26.8061,43.1394 28.8061,45.1394 30.5,47.5C 27.5,47.5 24.5,47.5 21.5,47.5C 19.8061,45.1394 17.8061,43.1394 15.5,41.5 Z"/></g>
<g><path style="opacity:1" fill="#ff7043" d="M 36.5,39.5 C 38.9362,41.0156 40.9362,43.0156 42.5,45.5C 41.5,46.1667 40.5,46.8333 39.5,47.5C 36.5,47.5 33.5,47.5 30.5,47.5C 28.8061,45.1394 26.8061,43.1394 24.5,41.5C 28.7424,41.9208 32.7424,41.2541 36.5,39.5 Z"/></g>
</svg>
