<?xml version="1.0" encoding="UTF-8"?>
<!DOCTYPE svg PUBLIC "-//W3C//DTD SVG 1.1//EN" "http://www.w3.org/Graphics/SVG/1.1/DTD/svg11.dtd">
<svg xmlns="http://www.w3.org/2000/svg" version="1.1" width="48px" height="48px" style="shape-rendering:geometricPrecision; text-rendering:geometricPrecision; image-rendering:optimizeQuality; fill-rule:evenodd; clip-rule:evenodd" xmlns:xlink="http://www.w3.org/1999/xlink">
<g><path style="opacity:1" fill="#f9fbfd" d="M -0.5,-0.5 C 5.5,-0.5 11.5,-0.5 17.5,-0.5C 9.16667,3.16667 3.16667,9.16667 -0.5,17.5C -0.5,11.5 -0.5,5.5 -0.5,-0.5 Z"/></g>
<g><path style="opacity:1" fill="#0f7ab9" d="M 17.5,-0.5 C 20.8333,-0.5 24.1667,-0.5 27.5,-0.5C 36.9761,2.30616 43.6428,8.30616 47.5,17.5C 47.5,20.8333 47.5,24.1667 47.5,27.5C 44.5,37.8333 37.8333,44.5 27.5,47.5C 24.1667,47.5 20.8333,47.5 17.5,47.5C 8.30616,43.6428 2.30616,36.9761 -0.5,27.5C -0.5,24.1667 -0.5,20.8333 -0.5,17.5C 3.16667,9.16667 9.16667,3.16667 17.5,-0.5 Z"/></g>
<g><path style="opacity:1" fill="#f8fafc" d="M 27.5,-0.5 C 34.1667,-0.5 40.8333,-0.5 47.5,-0.5C 47.5,5.5 47.5,11.5 47.5,17.5C 43.6428,8.30616 36.9761,2.30616 27.5,-0.5 Z"/></g>
<g><path style="opacity:1" fill="#eff2f2" d="M 12.5,9.5 C 16.485,9.62944 17.8183,11.4628 16.5,15C 11.7282,15.8104 10.3948,13.9771 12.5,9.5 Z"/></g>
<g><path style="opacity:1" fill="#f3f3f2" d="M 11.5,18.5 C 13.1667,18.5 14.8333,18.5 16.5,18.5C 16.5,24.1667 16.5,29.8333 16.5,35.5C 14.8333,35.5 13.1667,35.5 11.5,35.5C 11.5,29.8333 11.5,24.1667 11.5,18.5 Z"/></g>
<g><path style="opacity:1" fill="#edf0f1" d="M 28.5,17.5 C 31.2724,17.22 33.7724,17.8866 36,19.5C 37.3967,24.7081 37.8967,30.0414 37.5,35.5C 35.8333,35.5 34.1667,35.5 32.5,35.5C 32.6653,31.8183 32.4986,28.1516 32,24.5C 30.6883,22.3424 29.0217,22.0091 27,23.5C 26.5012,27.4862 26.3345,31.4862 26.5,35.5C 24.5,35.5 22.5,35.5 20.5,35.5C 20.5,29.8333 20.5,24.1667 20.5,18.5C 22.7659,18.1412 24.5993,18.8078 26,20.5C 27.045,19.6266 27.8783,18.6266 28.5,17.5 Z"/></g>
<g><path style="opacity:1" fill="#9dc6dc" d="M 11.5,18.5 C 13.2646,17.5386 15.2646,17.2053 17.5,17.5C 17.8229,23.69 17.4896,29.69 16.5,35.5C 16.5,29.8333 16.5,24.1667 16.5,18.5C 14.8333,18.5 13.1667,18.5 11.5,18.5 Z"/></g>
<g><path style="opacity:1" fill="#f8fafc" d="M -0.5,27.5 C 2.30616,36.9761 8.30616,43.6428 17.5,47.5C 11.5,47.5 5.5,47.5 -0.5,47.5C -0.5,40.8333 -0.5,34.1667 -0.5,27.5 Z"/></g>
<g><path style="opacity:1" fill="#f7fafc" d="M 47.5,27.5 C 47.5,34.1667 47.5,40.8333 47.5,47.5C 40.8333,47.5 34.1667,47.5 27.5,47.5C 37.8333,44.5 44.5,37.8333 47.5,27.5 Z"/></g>
</svg>
