<?xml version="1.0" standalone="no"?>
<!DOCTYPE svg PUBLIC "-//W3C//DTD SVG 20010904//EN"
 "http://www.w3.org/TR/2001/REC-SVG-20010904/DTD/svg10.dtd">
<svg version="1.0" xmlns="http://www.w3.org/2000/svg"
 width="35.159987pt" height="35.241012pt" viewBox="0 0 35.159987 35.241012"
 preserveAspectRatio="xMidYMid meet">
<metadata>
Created by potrace 1.12, written by Peter Selinger 2001-2015
</metadata>
<g transform="translate(-0.274569,34.806456) scale(0.100000,-0.100000)"
fill="#000000" stroke="none">
<path d="M70 333 c-78 -40 -91 -141 -25 -201 33 -30 42 -33 83 -30 26 3 55 8
65 12 12 6 17 4 17 -6 0 -7 23 -36 50 -63 l50 -49 22 22 22 22 -49 50 c-27 27
-56 50 -63 50 -10 0 -12 5 -6 18 4 9 9 38 12 64 3 41 0 50 -30 83 -41 45 -95
55 -148 28z m115 -48 c54 -53 16 -145 -60 -145 -26 0 -43 7 -60 26 -75 81 43
197 120 119z"/>
</g>
</svg>
