<?xml version="1.0" standalone="no"?>
<!DOCTYPE svg PUBLIC "-//W3C//DTD SVG 20010904//EN"
 "http://www.w3.org/TR/2001/REC-SVG-20010904/DTD/svg10.dtd">
<svg version="1.0" xmlns="http://www.w3.org/2000/svg"
 width="27.149299pt" height="19.031935pt" viewBox="0 0 27.149299 19.031935"
 preserveAspectRatio="xMidYMid meet">
<metadata>
Created by potrace 1.12, written by Peter Selinger 2001-2015
</metadata>
<g transform="translate(-3.925350,27.031935) scale(0.100000,-0.100000)"
fill="#000000" stroke="none">
<path d="M44 259 c-13 -21 21 -29 131 -29 110 0 144 8 131 29 -10 15 -252 15
-262 0z"/>
<path d="M45 180 c-3 -5 0 -13 7 -15 25 -10 253 -1 251 10 -4 14 -249 19 -258
5z"/>
<path d="M51 111 c-34 -22 4 -31 124 -31 120 0 158 9 124 31 -18 11 -230 11
-248 0z"/>
</g>
</svg>
