<?xml version="1.0" standalone="no"?>
<!DOCTYPE svg PUBLIC "-//W3C//DTD SVG 20010904//EN"
 "http://www.w3.org/TR/2001/REC-SVG-20010904/DTD/svg10.dtd">
<svg version="1.0" xmlns="http://www.w3.org/2000/svg"
 width="33.536495pt" height="47.500000pt" viewBox="0 0 33.536495 47.500000"
 preserveAspectRatio="xMidYMid meet">
<metadata>
Created by potrace 1.12, written by Peter Selinger 2001-2015
</metadata>
<g transform="translate(-7.228613,48.000000) scale(0.100000,-0.100000)"
fill="#000000" stroke="none">
<path d="M179 451 c-29 -29 -29 -31 -29 -139 0 -105 1 -110 26 -136 37 -36 91
-36 128 0 25 26 26 31 26 136 0 108 0 110 -29 139 -20 20 -39 29 -61 29 -22 0
-41 -9 -61 -29z"/>
<path d="M80 285 c-16 -20 -5 -91 20 -133 21 -35 74 -72 103 -72 10 0 17 -8
17 -19 0 -16 -8 -20 -42 -23 -30 -2 -43 -8 -43 -18 0 -12 18 -15 105 -15 87 0
105 3 105 15 0 10 -13 16 -42 18 -35 3 -43 7 -43 23 0 11 7 19 18 19 28 0 81
37 102 72 28 47 37 116 17 136 -19 18 -22 12 -30 -57 -7 -58 -34 -92 -85 -111
-37 -13 -47 -13 -84 0 -53 19 -80 56 -86 119 -5 57 -13 68 -32 46z"/>
</g>
</svg>
