<?xml version="1.0" standalone="no"?>
<!DOCTYPE svg PUBLIC "-//W3C//DTD SVG 20010904//EN"
 "http://www.w3.org/TR/2001/REC-SVG-20010904/DTD/svg10.dtd">
<svg version="1.0" xmlns="http://www.w3.org/2000/svg"
 width="41.000000pt" height="42.685372pt" viewBox="0 0 41.000000 42.685372"
 preserveAspectRatio="xMidYMid meet">
<metadata>
Created by potrace 1.12, written by Peter Selinger 2001-2015
</metadata>
<g transform="translate(-2.000000,44.687138) scale(0.100000,-0.100000)"
fill="#000000" stroke="none">
<path d="M98 440 c-22 -13 -78 -159 -78 -203 0 -47 15 -57 88 -57 57 0 63 -2
57 -17 -4 -10 -10 -40 -13 -67 -4 -40 -1 -52 13 -63 35 -25 53 -16 76 37 12
28 37 64 56 80 28 25 42 30 83 30 l50 0 0 131 0 130 -57 0 c-32 1 -103 3 -158
5 -58 2 -107 0 -117 -6z m207 -22 c24 -11 25 -14 25 -111 l0 -99 -44 -39 c-25
-22 -52 -59 -62 -84 -20 -46 -30 -51 -48 -22 -10 15 -2 65 19 119 6 15 -2 17
-71 20 -67 3 -79 6 -82 22 -5 25 37 152 60 181 18 23 26 25 98 25 44 0 91 -5
105 -12z m105 -108 l0 -110 -30 0 -30 0 0 110 0 110 30 0 30 0 0 -110z"/>
</g>
</svg>
