<?xml version="1.0" standalone="no"?>
<!DOCTYPE svg PUBLIC "-//W3C//DTD SVG 20010904//EN"
 "http://www.w3.org/TR/2001/REC-SVG-20010904/DTD/svg10.dtd">
<svg version="1.0" xmlns="http://www.w3.org/2000/svg"
 width="41.408010pt" height="37.372241pt" viewBox="0 0 41.408010 37.372241"
 preserveAspectRatio="xMidYMid meet">
<metadata>
Created by potrace 1.12, written by Peter Selinger 2001-2015
</metadata>
<g transform="translate(-3.091990,42.872241) scale(0.100000,-0.100000)"
fill="#000000" stroke="none">
<path d="M34 417 c-3 -9 -4 -30 -2 -49 3 -32 4 -33 56 -36 l53 -3 -3 48 -3 48
-48 3 c-34 2 -49 -1 -53 -11z"/>
<path d="M177 424 c-4 -4 -7 -27 -7 -51 l0 -44 138 3 137 3 0 45 0 45 -131 3
c-71 1 -133 -1 -137 -4z"/>
<path d="M34 277 c-3 -9 -4 -30 -2 -49 3 -33 4 -33 53 -33 l50 0 0 45 0 45
-48 3 c-34 2 -49 -1 -53 -11z"/>
<path d="M174 276 c-3 -8 -4 -29 -2 -48 l3 -33 135 0 135 0 0 45 0 45 -133 3
c-108 2 -133 0 -138 -12z"/>
<path d="M34 136 c-3 -8 -4 -29 -2 -48 3 -33 4 -33 53 -33 l50 0 3 48 3 47
-51 0 c-34 0 -52 -5 -56 -14z"/>
<path d="M172 103 l3 -48 135 0 135 0 0 45 0 45 -138 3 -138 3 3 -48z"/>
</g>
</svg>
