<?xml version="1.0" standalone="no"?>
<!DOCTYPE svg PUBLIC "-//W3C//DTD SVG 20010904//EN"
 "http://www.w3.org/TR/2001/REC-SVG-20010904/DTD/svg10.dtd">
<svg version="1.0" xmlns="http://www.w3.org/2000/svg"
 width="47.150965pt" height="47.379311pt" viewBox="0 0 47.150965 47.379311"
 preserveAspectRatio="xMidYMid meet">
<metadata>
Created by potrace 1.12, written by Peter Selinger 2001-2015
</metadata>
<g transform="translate(-0.128864,47.379311) scale(0.100000,-0.100000)"
fill="#000000" stroke="none">
<path d="M413 465 c-12 -9 -22 -29 -25 -50 -3 -28 0 -38 19 -50 20 -14 26 -14
46 -1 19 13 22 22 19 56 -5 48 -28 66 -59 45z m45 -43 c3 -30 1 -32 -27 -32
-26 0 -31 4 -31 23 0 54 53 62 58 9z"/>
<path d="M4 396 c-3 -8 -4 -25 -1 -38 4 -21 4 -20 6 5 l1 27 174 0 c106 0 177
4 181 10 4 7 -57 10 -175 10 -147 0 -182 -3 -186 -14z"/>
<path d="M35 329 c-4 -6 -1 -15 6 -20 12 -7 12 -9 0 -9 -11 0 -12 -3 -4 -11
16 -16 33 -2 29 23 -3 25 -21 34 -31 17z"/>
<path d="M83 315 c1 -19 7 -30 17 -30 10 0 16 11 17 30 1 20 0 23 -4 8 -2 -13
-8 -23 -13 -23 -5 0 -11 10 -13 23 -4 15 -5 12 -4 -8z"/>
<path d="M130 311 c0 -28 2 -30 34 -28 19 2 38 6 42 10 4 4 13 2 21 -5 10 -8
17 -8 25 0 9 9 8 12 -5 12 -9 0 -17 5 -17 10 0 6 8 10 17 10 13 0 14 3 5 12
-9 9 -17 7 -33 -8 -13 -10 -19 -14 -16 -7 10 16 -12 28 -26 14 -9 -9 -8 -14 3
-21 9 -6 10 -10 3 -10 -7 0 -17 9 -23 20 -16 29 -30 25 -30 -9z"/>
<path d="M270 313 c0 -20 5 -30 16 -30 10 0 14 8 12 25 -4 37 -28 40 -28 5z"/>
<path d="M312 310 c0 -19 2 -27 5 -17 2 9 2 25 0 35 -3 9 -5 1 -5 -18z"/>
<path d="M334 326 c-8 -22 3 -49 19 -43 6 2 12 14 12 27 0 27 -22 39 -31 16z"/>
<path d="M380 310 c0 -17 5 -30 13 -30 7 0 13 13 13 30 1 19 -3 30 -12 30 -9
0 -14 -11 -14 -30z"/>
<path d="M418 278 l-3 -51 -77 2 c-52 2 -78 -1 -78 -9 0 -7 29 -10 88 -8 l87
3 3 58 c2 33 -1 57 -7 57 -5 0 -11 -23 -13 -52z"/>
<path d="M4 270 l1 -55 83 -3 c55 -2 82 1 82 8 0 8 -26 11 -78 9 l-77 -2 -6
49 -6 49 1 -55z"/>
<path d="M202 248 c-7 -7 -12 -42 -12 -85 0 -66 -2 -73 -20 -73 -29 0 -25 -31
8 -63 24 -23 36 -27 90 -27 l62 0 0 78 0 78 -45 18 c-34 15 -45 24 -45 41 0
30 -22 49 -38 33z m29 -142 c5 -6 9 6 9 33 0 52 19 46 22 -7 l1 -37 4 33 c5
42 23 42 24 0 2 -31 2 -31 6 -5 9 55 24 26 21 -40 l-3 -68 -47 -3 c-40 -3 -51
1 -80 27 -18 16 -30 33 -25 37 4 4 13 2 19 -4 23 -23 28 -11 30 81 2 78 2 82
5 27 2 -36 8 -69 14 -74z"/>
</g>
</svg>
