<?xml version="1.0" encoding="UTF-8"?>
<!DOCTYPE svg PUBLIC "-//W3C//DTD SVG 1.1//EN" "http://www.w3.org/Graphics/SVG/1.1/DTD/svg11.dtd">
<svg xmlns="http://www.w3.org/2000/svg" version="1.1" width="48px" height="48px" style="shape-rendering:geometricPrecision; text-rendering:geometricPrecision; image-rendering:optimizeQuality; fill-rule:evenodd; clip-rule:evenodd" xmlns:xlink="http://www.w3.org/1999/xlink">
<g><path style="opacity:1" fill="#fbfdfa" d="M -0.5,-0.5 C 5.5,-0.5 11.5,-0.5 17.5,-0.5C 9.16667,3.16667 3.16667,9.16667 -0.5,17.5C -0.5,11.5 -0.5,5.5 -0.5,-0.5 Z"/></g>
<g><path style="opacity:1" fill="#2ca71e" d="M 17.5,-0.5 C 21.1667,-0.5 24.8333,-0.5 28.5,-0.5C 37.412,2.74454 43.7454,8.74454 47.5,17.5C 47.5,21.1667 47.5,24.8333 47.5,28.5C 44.1667,37.8333 37.8333,44.1667 28.5,47.5C 24.8333,47.5 21.1667,47.5 17.5,47.5C 8.74454,43.7454 2.74454,37.412 -0.5,28.5C -0.5,24.8333 -0.5,21.1667 -0.5,17.5C 3.16667,9.16667 9.16667,3.16667 17.5,-0.5 Z"/></g>
<g><path style="opacity:1" fill="#fafdfa" d="M 28.5,-0.5 C 34.8333,-0.5 41.1667,-0.5 47.5,-0.5C 47.5,5.5 47.5,11.5 47.5,17.5C 43.7454,8.74454 37.412,2.74454 28.5,-0.5 Z"/></g>
<g><path style="opacity:1" fill="#f4faf3" d="M 19.5,8.5 C 34.3269,8.19443 40.1602,15.1944 37,29.5C 32.151,37.7273 25.3176,40.0606 16.5,36.5C 8.67846,40.44 6.67846,38.44 10.5,30.5C 6.8836,20.4054 9.8836,13.0721 19.5,8.5 Z"/></g>
<g><path style="opacity:1" fill="#2da71f" d="M 20.5,11.5 C 33.2411,12.3312 37.4077,18.6645 33,30.5C 31.786,32.0488 30.286,33.2155 28.5,34C 23.428,34.1499 18.428,34.3166 13.5,34.5C 12.978,29.9942 12.478,25.3276 12,20.5C 13.6878,16.3148 16.5212,13.3148 20.5,11.5 Z"/></g>
<g><path style="opacity:1" fill="#f4faf2" d="M 17.5,16.5 C 20.5131,17.3559 21.1797,19.1892 19.5,22C 20.8333,23.3333 22.1667,24.6667 23.5,26C 24.8989,26.5946 26.2322,26.4279 27.5,25.5C 32.612,27.3282 32.4453,28.9949 27,30.5C 19.4292,28.4839 16.2625,23.8172 17.5,16.5 Z"/></g>
<g><path style="opacity:1" fill="#fafdfa" d="M -0.5,28.5 C 2.74454,37.412 8.74454,43.7454 17.5,47.5C 11.5,47.5 5.5,47.5 -0.5,47.5C -0.5,41.1667 -0.5,34.8333 -0.5,28.5 Z"/></g>
<g><path style="opacity:1" fill="#fafdf9" d="M 47.5,28.5 C 47.5,34.8333 47.5,41.1667 47.5,47.5C 41.1667,47.5 34.8333,47.5 28.5,47.5C 37.8333,44.1667 44.1667,37.8333 47.5,28.5 Z"/></g>
</svg>
