<?xml version="1.0" encoding="UTF-8"?>
<!DOCTYPE svg PUBLIC "-//W3C//DTD SVG 1.1//EN" "http://www.w3.org/Graphics/SVG/1.1/DTD/svg11.dtd">
<svg xmlns="http://www.w3.org/2000/svg" version="1.1" width="48px" height="48px" style="shape-rendering:geometricPrecision; text-rendering:geometricPrecision; image-rendering:optimizeQuality; fill-rule:evenodd; clip-rule:evenodd" xmlns:xlink="http://www.w3.org/1999/xlink">
<g><path style="opacity:1" fill="#fffefe" d="M -0.5,-0.5 C 15.5,-0.5 31.5,-0.5 47.5,-0.5C 47.5,4.16667 47.5,8.83333 47.5,13.5C 46.802,11.3331 45.4687,9.49981 43.5,8C 30.1528,6.04352 16.8194,6.04352 3.5,8C 1.5313,9.49981 0.197963,11.3331 -0.5,13.5C -0.5,8.83333 -0.5,4.16667 -0.5,-0.5 Z"/></g>
<g><path style="opacity:1" fill="#ff0d07" d="M 47.5,13.5 C 47.5,19.5 47.5,25.5 47.5,31.5C 47.0666,34.3865 45.7333,36.8865 43.5,39C 30.1528,40.9565 16.8194,40.9565 3.5,39C 1.26669,36.8865 -0.0666452,34.3865 -0.5,31.5C -0.5,25.5 -0.5,19.5 -0.5,13.5C 0.197963,11.3331 1.5313,9.49981 3.5,8C 16.8194,6.04352 30.1528,6.04352 43.5,8C 45.4687,9.49981 46.802,11.3331 47.5,13.5 Z"/></g>
<g><path style="opacity:1" fill="#fff4f4" d="M 18.5,16.5 C 22.8006,18.317 26.8006,20.6503 30.5,23.5C 27.0026,26.083 23.3359,28.4164 19.5,30.5C 18.5067,25.8804 18.1734,21.2137 18.5,16.5 Z"/></g>
<g><path style="opacity:1" fill="#fffcfc" d="M -0.5,31.5 C -0.0666452,34.3865 1.26669,36.8865 3.5,39C 16.8194,40.9565 30.1528,40.9565 43.5,39C 45.7333,36.8865 47.0666,34.3865 47.5,31.5C 47.5,36.8333 47.5,42.1667 47.5,47.5C 31.5,47.5 15.5,47.5 -0.5,47.5C -0.5,42.1667 -0.5,36.8333 -0.5,31.5 Z"/></g>
</svg>
